<svg width="326" height="456" viewBox="0 0 326 456" fill="none" xmlns="http://www.w3.org/2000/svg">
<path fill-rule="evenodd" clip-rule="evenodd" d="M133.369 0L146.05 30.4471L202.451 165.863C206.755 166.058 211.165 166.378 215.696 166.81L216.85 166.919L217.963 167.239C268.305 181.706 324.011 224.77 324.011 289.753C324.011 325.364 296.937 349.675 269.403 357.748C255.441 361.842 240.14 362.221 226.561 357.151C212.612 351.944 201.143 341.178 195.652 324.706C194.656 321.717 193.819 318.808 193.163 315.987L143.889 200.931C143.424 201.157 142.959 201.388 142.494 201.623C122.303 211.829 102.158 230.219 75.7534 261.497C64.548 280.638 57.5011 295.75 52.9237 311.708C48.7747 326.173 46.5159 341.815 45.3737 362.409L54.5432 361.765L61.5513 361.274L59.7203 368.056L39.0334 444.692L36.3606 454.594L34.1429 406.547C36.9429 405.823 39.0109 403.279 39.0109 400.253C39.0109 396.663 36.1007 393.753 32.5109 393.753C28.921 393.753 26.0109 396.663 26.0109 400.253C26.0109 403.374 28.2098 405.981 31.1427 406.609L33.4037 455.596L29.5187 445.129L2.32324 371.852L0 365.592L6.66089 365.125L20.2473 364.172C21.386 341.014 23.8269 322.476 28.8928 304.815C30.7905 298.199 33.0354 291.78 35.6678 285.353L122.685 31.2041L133.369 0ZM215.994 273.737C210.753 274.431 204.719 276.442 199.916 280.953L162.698 194.046C169.88 192.23 177.474 191.168 185.752 190.792L220.162 273.408C218.783 273.448 217.388 273.552 215.994 273.737ZM175.626 166.479C167.74 167.29 160.157 168.711 152.758 170.836L124.163 104.065L135.653 70.5063L175.626 166.479ZM87.1471 212.177L114.497 132.297L134.038 177.928C133.096 178.375 132.156 178.836 131.216 179.311C116.242 186.88 102.005 197.741 87.1471 212.177ZM213.31 191.934L252.05 284.947L263.487 312.407L235.903 301.373L235.902 301.372L235.894 301.369L235.884 301.365L235.883 301.365L235.883 301.365L235.882 301.365L235.87 301.36C235.826 301.343 235.74 301.31 235.614 301.264C235.362 301.17 234.955 301.024 234.422 300.845C233.347 300.485 231.804 300.008 230.003 299.569C226.141 298.628 222.194 298.133 219.278 298.52C217.921 298.7 217.306 299.007 217.129 299.119C217.125 299.121 217.122 299.122 217.119 299.124L217.114 299.126C217.088 299.136 217.058 299.148 216.963 299.367C216.526 300.375 215.431 304.985 219.369 316.8C222.379 325.829 228.16 331.063 235.305 333.73C242.819 336.536 252.456 336.665 262.369 333.758C282.585 327.831 299.011 311.143 299.011 289.753C299.011 241.552 257.581 205.449 213.31 191.934ZM77.312 381.933H90.08V385.845H89.456L88.76 383.325C88.712 383.133 88.656 382.997 88.592 382.917C88.544 382.821 88.44 382.765 88.28 382.749C88.12 382.717 87.848 382.701 87.464 382.701H84.752V396.309C84.752 396.869 84.776 397.197 84.824 397.293C84.872 397.389 85.024 397.453 85.28 397.485L86.6 397.629V398.253H80.816V397.629L82.136 397.485C82.392 397.453 82.544 397.389 82.592 397.293C82.64 397.197 82.664 396.869 82.664 396.309V382.701H79.928C79.56 382.701 79.288 382.717 79.112 382.749C78.952 382.765 78.84 382.821 78.776 382.917C78.728 382.997 78.68 383.133 78.632 383.325L77.936 385.845H77.312V381.933ZM106.678 397.629V398.253H100.894V397.629L102.214 397.485C102.47 397.453 102.622 397.389 102.67 397.293C102.718 397.197 102.742 396.869 102.742 396.309V390.405H95.4942V396.309C95.4942 396.869 95.5182 397.197 95.5663 397.293C95.6143 397.389 95.7663 397.453 96.0222 397.485L97.3422 397.629V398.253H91.5583V397.629L92.8783 397.485C93.1342 397.453 93.2862 397.389 93.3343 397.293C93.3822 397.197 93.4062 396.869 93.4062 396.309V383.877C93.4062 383.317 93.3822 382.989 93.3343 382.893C93.2862 382.797 93.1342 382.733 92.8783 382.701L91.5583 382.581V381.933H97.3422V382.581L96.0222 382.701C95.7663 382.733 95.6143 382.797 95.5663 382.893C95.5182 382.989 95.4942 383.317 95.4942 383.877V389.637H102.742V383.877C102.742 383.317 102.718 382.989 102.67 382.893C102.622 382.797 102.47 382.733 102.214 382.701L100.894 382.581V381.933H106.678V382.581L105.358 382.701C105.102 382.733 104.95 382.797 104.902 382.893C104.854 382.989 104.83 383.317 104.83 383.877V396.309C104.83 396.869 104.854 397.197 104.902 397.293C104.95 397.389 105.102 397.453 105.358 397.485L106.678 397.629ZM120.468 394.341V398.253H108.972V397.629L110.292 397.485C110.548 397.453 110.7 397.389 110.748 397.293C110.796 397.197 110.82 396.869 110.82 396.309V383.877C110.82 383.317 110.796 382.989 110.748 382.893C110.7 382.797 110.548 382.733 110.292 382.701L108.972 382.581V381.933H120.156V385.845H119.556L118.86 383.325C118.812 383.133 118.756 382.997 118.692 382.917C118.644 382.821 118.54 382.765 118.38 382.749C118.22 382.717 117.948 382.701 117.564 382.701H112.908V389.637H116.124C116.508 389.637 116.78 389.629 116.94 389.613C117.1 389.581 117.204 389.525 117.252 389.445C117.316 389.349 117.372 389.205 117.42 389.013L117.876 387.213H118.5V392.829H117.876L117.42 391.029C117.372 390.837 117.316 390.701 117.252 390.621C117.204 390.525 117.1 390.469 116.94 390.453C116.78 390.421 116.508 390.405 116.124 390.405H112.908V397.485H117.852C118.236 397.485 118.508 397.477 118.668 397.461C118.828 397.429 118.932 397.373 118.98 397.293C119.044 397.197 119.1 397.053 119.148 396.861L119.844 394.341H120.468ZM96.776 442.253V440.901L93.916 440.589C93.3613 440.52 93.0493 440.381 92.98 440.173C92.9453 439.931 93.1187 439.22 93.5 438.041L95.632 431.385H108.32L110.452 438.041C110.833 439.22 110.989 439.931 110.92 440.173C110.885 440.381 110.591 440.52 110.036 440.589L107.176 440.901V442.253H119.812V440.901L116.952 440.589C116.605 440.555 116.345 440.503 116.172 440.433C115.999 440.329 115.825 440.121 115.652 439.809C115.513 439.462 115.323 438.873 115.08 438.041L104.94 406.893H101.664L91.628 438.041C91.3853 438.873 91.1773 439.462 91.004 439.809C90.8653 440.121 90.7093 440.329 90.536 440.433C90.3627 440.503 90.0853 440.555 89.704 440.589L86.896 440.901V442.253H96.776ZM101.976 411.625L107.8 429.721H96.152L101.976 411.625ZM122.148 406.893V408.297L125.008 408.557C125.563 408.626 125.892 408.765 125.996 408.973C126.1 409.181 126.152 409.892 126.152 411.105V438.041C126.152 439.255 126.1 439.965 125.996 440.173C125.892 440.381 125.563 440.52 125.008 440.589L122.148 440.901V442.253H134.68V440.901L131.82 440.589C131.266 440.52 130.936 440.381 130.832 440.173C130.728 439.965 130.676 439.255 130.676 438.041V426.237H135.772L143.988 442.253H151.84V440.901L149.5 440.589C149.154 440.555 148.876 440.503 148.668 440.433C148.495 440.329 148.304 440.121 148.096 439.809C147.888 439.462 147.559 438.873 147.108 438.041L140.452 425.769C142.602 425.215 144.248 424.209 145.392 422.753C146.571 421.263 147.16 419.46 147.16 417.345V415.733C147.16 413.064 146.242 410.932 144.404 409.337C142.602 407.708 140.002 406.893 136.604 406.893H122.148ZM130.676 408.557H136.604C138.407 408.557 139.811 409.129 140.816 410.273C141.856 411.417 142.376 413.168 142.376 415.525V417.553C142.376 419.91 141.856 421.678 140.816 422.857C139.811 424.001 138.407 424.573 136.604 424.573H130.676V408.557ZM159.432 438.353C161.755 441.3 165.118 442.773 169.52 442.773C171.982 442.773 174.166 442.219 176.072 441.109C178.014 439.965 179.366 438.007 180.128 435.233L176.904 434.401C176.731 436.135 176.28 437.487 175.552 438.457C174.824 439.428 173.94 440.121 172.9 440.537C171.86 440.919 170.768 441.109 169.624 441.109C166.747 441.109 164.58 440.173 163.124 438.301C161.668 436.429 160.94 433.361 160.94 429.097V419.997C160.94 415.768 161.616 412.717 162.968 410.845C164.355 408.973 166.366 408.037 169 408.037C171.358 408.037 173.108 408.939 174.252 410.741C175.396 412.509 175.778 415.057 175.396 418.385L179.868 417.293C180.146 415.352 179.903 413.566 179.14 411.937C178.378 410.273 177.147 408.939 175.448 407.933C173.75 406.893 171.6 406.373 169 406.373C166.192 406.373 163.818 407.049 161.876 408.401C159.935 409.753 158.462 411.643 157.456 414.069C156.486 416.496 156 419.339 156 422.597V426.497C156 431.454 157.144 435.406 159.432 438.353ZM217.877 442.253V440.901L215.017 440.589C214.462 440.52 214.133 440.381 214.029 440.173C213.925 439.965 213.873 439.255 213.873 438.041V411.105C213.873 409.892 213.925 409.181 214.029 408.973C214.133 408.765 214.462 408.626 215.017 408.557L217.877 408.297V406.893H205.345V408.297L208.205 408.557C208.76 408.626 209.089 408.765 209.193 408.973C209.297 409.181 209.349 409.892 209.349 411.105V423.585H193.645V411.105C193.645 409.892 193.697 409.181 193.801 408.973C193.905 408.765 194.234 408.626 194.789 408.557L197.649 408.297V406.893H185.117V408.297L187.977 408.557C188.532 408.626 188.861 408.765 188.965 408.973C189.069 409.181 189.121 409.892 189.121 411.105V438.041C189.121 439.255 189.069 439.965 188.965 440.173C188.861 440.381 188.532 440.52 187.977 440.589L185.117 440.901V442.253H197.649V440.901L194.789 440.589C194.234 440.52 193.905 440.381 193.801 440.173C193.697 439.965 193.645 439.255 193.645 438.041V425.249H209.349V438.041C209.349 439.255 209.297 439.965 209.193 440.173C209.089 440.381 208.76 440.52 208.205 440.589L205.345 440.901V442.253H217.877ZM222.848 406.893V408.297L225.708 408.557C226.262 408.626 226.592 408.765 226.696 408.973C226.8 409.181 226.852 409.892 226.852 411.105V438.041C226.852 439.255 226.8 439.965 226.696 440.173C226.592 440.381 226.262 440.52 225.708 440.589L222.848 440.901V442.253H235.38V440.901L232.52 440.589C231.965 440.52 231.636 440.381 231.532 440.173C231.428 439.965 231.376 439.255 231.376 438.041V411.105C231.376 409.892 231.428 409.181 231.532 408.973C231.636 408.765 231.965 408.626 232.52 408.557L235.38 408.297V406.893H222.848ZM266.211 406.893H238.547V415.369H239.899L241.407 409.909C241.511 409.493 241.615 409.199 241.719 409.025C241.858 408.817 242.1 408.696 242.447 408.661C242.828 408.592 243.418 408.557 244.215 408.557H250.143V438.041C250.143 439.255 250.091 439.965 249.987 440.173C249.883 440.381 249.554 440.52 248.999 440.589L246.139 440.901V442.253H258.671V440.901L255.811 440.589C255.256 440.52 254.927 440.381 254.823 440.173C254.719 439.965 254.667 439.255 254.667 438.041V408.557H260.543C261.375 408.557 261.964 408.592 262.311 408.661C262.658 408.696 262.883 408.817 262.987 409.025C263.126 409.199 263.247 409.493 263.351 409.909L264.859 415.369H266.211V406.893ZM294.322 442.253V433.777H292.97L291.462 439.237C291.358 439.653 291.237 439.965 291.098 440.173C290.994 440.346 290.769 440.468 290.422 440.537C290.075 440.572 289.486 440.589 288.654 440.589H277.942V425.249H284.91C285.742 425.249 286.331 425.284 286.678 425.353C287.025 425.388 287.25 425.509 287.354 425.717C287.493 425.891 287.614 426.185 287.718 426.601L288.706 430.501H290.058V418.333H288.706L287.718 422.233C287.614 422.649 287.493 422.961 287.354 423.169C287.25 423.342 287.025 423.464 286.678 423.533C286.331 423.568 285.742 423.585 284.91 423.585H277.942V408.557H288.03C288.862 408.557 289.451 408.592 289.798 408.661C290.145 408.696 290.37 408.817 290.474 409.025C290.613 409.199 290.734 409.493 290.838 409.909L292.346 415.369H293.646V406.893H269.414V408.297L272.274 408.557C272.829 408.626 273.158 408.765 273.262 408.973C273.366 409.181 273.418 409.892 273.418 411.105V438.041C273.418 439.255 273.366 439.965 273.262 440.173C273.158 440.381 272.829 440.52 272.274 440.589L269.414 440.901V442.253H294.322ZM304.362 438.353C306.685 441.3 310.047 442.773 314.45 442.773C316.911 442.773 319.095 442.219 321.002 441.109C322.943 439.965 324.295 438.007 325.058 435.233L321.834 434.401C321.661 436.135 321.21 437.487 320.482 438.457C319.754 439.428 318.87 440.121 317.83 440.537C316.79 440.919 315.698 441.109 314.554 441.109C311.677 441.109 309.51 440.173 308.054 438.301C306.598 436.429 305.87 433.361 305.87 429.097V419.997C305.87 415.768 306.546 412.717 307.898 410.845C309.285 408.973 311.295 408.037 313.93 408.037C316.287 408.037 318.038 408.939 319.182 410.741C320.326 412.509 320.707 415.057 320.326 418.385L324.798 417.293C325.075 415.352 324.833 413.566 324.07 411.937C323.307 410.273 322.077 408.939 320.378 407.933C318.679 406.893 316.53 406.373 313.93 406.373C311.122 406.373 308.747 407.049 306.806 408.401C304.865 409.753 303.391 411.643 302.386 414.069C301.415 416.496 300.93 419.339 300.93 422.597V426.497C300.93 431.454 302.074 435.406 304.362 438.353Z" fill="black"/>
</svg>
