<svg width="325" height="456" viewBox="0 0 325 456" fill="none" xmlns="http://www.w3.org/2000/svg">
<path fill-rule="evenodd" clip-rule="evenodd" d="M133.369 0L146.05 30.4471L202.451 165.863C206.755 166.058 211.165 166.378 215.696 166.81L216.85 166.919L217.963 167.239C268.305 181.706 324.011 224.77 324.011 289.753C324.011 325.364 296.937 349.675 269.403 357.748C255.441 361.842 240.14 362.221 226.561 357.151C212.612 351.944 201.143 341.178 195.652 324.706C194.656 321.717 193.819 318.808 193.163 315.987L143.889 200.931C143.424 201.157 142.959 201.388 142.494 201.623C122.303 211.829 102.158 230.219 75.7534 261.497C64.548 280.638 57.5011 295.75 52.9237 311.708C48.7747 326.173 46.5159 341.815 45.3737 362.409L54.5432 361.765L61.5513 361.274L59.7203 368.056L39.0334 444.692L36.3606 454.594L34.1429 406.547C36.9429 405.823 39.0109 403.279 39.0109 400.253C39.0109 396.663 36.1007 393.753 32.5109 393.753C28.921 393.753 26.0109 396.663 26.0109 400.253C26.0109 403.374 28.2098 405.981 31.1427 406.609L33.4037 455.596L29.5187 445.129L2.32324 371.852L0 365.592L6.66089 365.125L20.2473 364.172C21.386 341.014 23.8269 322.476 28.8928 304.815C30.7905 298.199 33.0354 291.78 35.6678 285.353L122.685 31.2041L133.369 0ZM215.994 273.737C210.753 274.431 204.719 276.442 199.916 280.953L162.698 194.046C169.88 192.23 177.474 191.168 185.752 190.792L220.162 273.408C218.783 273.448 217.388 273.552 215.994 273.737ZM175.626 166.479C167.74 167.29 160.157 168.711 152.758 170.836L124.163 104.065L135.653 70.5063L175.626 166.479ZM87.1471 212.177L114.497 132.297L134.038 177.928C133.096 178.375 132.156 178.836 131.216 179.311C116.242 186.88 102.005 197.741 87.1471 212.177ZM213.31 191.934L252.05 284.947L263.487 312.407L235.903 301.373L235.902 301.372L235.894 301.369L235.884 301.365C235.882 301.365 235.883 301.365 235.883 301.365L235.882 301.365L235.87 301.36C235.826 301.343 235.74 301.31 235.614 301.264C235.362 301.17 234.955 301.024 234.422 300.845C233.347 300.485 231.804 300.008 230.003 299.569C226.141 298.628 222.194 298.133 219.278 298.52C217.921 298.7 217.306 299.007 217.129 299.119C217.125 299.121 217.122 299.122 217.119 299.124L217.114 299.126C217.088 299.136 217.058 299.148 216.963 299.367C216.526 300.375 215.431 304.985 219.369 316.8C222.379 325.829 228.16 331.063 235.305 333.73C242.819 336.536 252.456 336.665 262.369 333.758C282.585 327.831 299.011 311.143 299.011 289.753C299.011 241.552 257.581 205.449 213.31 191.934Z" fill="black"/>
</svg>
